<svg xmlns="http://www.w3.org/2000/svg"><path d="M426.61 454.213c-3.874-1.34-8.198-2.766-9.607-3.168-1.41-.402-4.003-1.66-5.764-2.798-1.762-1.137-5.337-2.72-7.946-3.518-2.72-.834-5.086-2.477-5.55-3.857-1.334-3.966-9.367-10.748-12.732-10.748-1.696 0-3.47-.59-3.943-1.312-.494-.753-3.663-1.154-7.442-.94-3.62.205-7.48-.156-8.577-.803-2.25-1.33-6.784-12.496-8.95-22.05-.917-4.046-2.333-6.81-3.894-7.6-2.93-1.48-3.21-4.247-.53-5.218 1.056-.383 1.92-1.463 1.92-2.4 0-.937-.864-2.38-1.92-3.21-1.284-1.004-1.923-3.72-1.923-8.17 0-3.664-.65-8.715-1.447-11.223-1.328-4.186-1.14-4.99 2.265-9.78 2.042-2.868 7.047-7.423 11.122-10.12 4.076-2.7 8.677-6.845 10.225-9.215 9.182-14.058 10.48-15.503 13.948-15.542 1.896-.02 3.803-.582 4.238-1.247.436-.665 1.91-1.21 3.278-1.21 2.105 0 2.488.864 2.488 5.61 0 6.453 2.24 8.802 8.448 8.863 3.425.032 8.204 3.034 8.204 5.152 0 .38-2.017 1.816-4.483 3.19-3.7 2.06-4.484 3.202-4.484 6.528 0 5.32 1.96 6.933 8.426 6.933 2.943 0 7.42.816 9.95 1.814 2.53.997 7.94 1.814 12.02 1.814 6.374 0 7.603-.37 8.69-2.62 2.78-5.768 8.528-5.914 15.117-.386l3.606 3.026-5.72 7.103c-3.148 3.906-6.442 8.39-7.322 9.966-.878 1.574-2.005 3.135-2.502 3.467-1.362.91-11.522 17.014-11.522 18.262 0 .596-.482 1.085-1.072 1.085-.59 0-3.02 3.51-5.398 7.802L423.5 415.5l2.297 6.032c1.724 4.527 2.08 7.685 1.42 12.655-1.013 7.664 1.614 13.43 6.667 14.627 2.28.54 2.974 1.546 2.974 4.31 0 4.252-.84 4.342-10.248 1.09z" class="province"/><path d="M290.12 445.773c-2.31-2.41-3.388-2.47-8.898-.492-2.106.757-2.277.63-.96-.708.88-.896 1.6-4.24 1.6-7.433 0-5.8-.003-5.806-4.37-5.806-5.322 0-11-5.598-11-10.846 0-1.912-.843-3.71-1.922-4.102-1.057-.382-1.92-1.72-1.92-2.972 0-5.59-2.76-9.703-7.776-11.598-4.633-1.75-5.035-2.27-5.035-6.538 0-3.362-.867-5.404-3.154-7.432l-3.153-2.796 2.833-3.47c1.558-1.91 4.994-5.69 7.636-8.397 5.066-5.194 6.102-8.836 2.848-10.014-3.52-1.277 7.185-9.225 12.423-9.225 5.446 0 11.088-2.367 12.002-5.035.52-1.515 2.596-2.11 8.424-2.418 10.415-.55 11.377.142 11.377 8.16 0 6.253 2.22 11.704 5.735 14.087 2.203 1.492 10.963 1.024 14.563-.78 3.398-1.7 19.756-6.76 21.86-6.76 1.54 0 2.934 7.516 3.17 17.075.116 4.69.915 8.822 1.93 9.976 1.136 1.293 1.237 1.97.294 1.97-2.578 0-1.693 8.252 1.032 9.628 1.63.825 2.98 3.574 3.976 8.096.828 3.767 2.613 9.287 3.967 12.267 1.353 2.982 2.15 5.713 1.772 6.07-.378.357-4.428.552-9 .433-7.928-.206-8.31-.086-8.31 2.62 0 6.176-8.513 9.133-11.44 3.972-1.497-2.642-2.454-2.877-12.25-3.003-9.98-.128-10.756.047-12.713 2.866-1.146 1.652-3.097 3.003-4.335 3.003-1.41 0-3.478 2.26-5.534 6.05-3.275 6.035-3.29 6.043-5.675 3.553z" class="province"/><path d="M239.59 430.227c0-.61-2.276-3.145-5.06-5.635-4.215-3.77-5.127-5.437-5.445-9.954-.237-3.367-1.11-5.743-2.303-6.262-9.92-4.314-9.607-3.955-9.607-10.963 0-6.425-.095-6.597-3.843-6.983-2.114-.217-4.39-.897-5.06-1.51-.67-.615-2.57-1.117-4.224-1.117-3.625 0-14.543-10.368-13.533-12.852.37-.91 2-1.658 3.62-1.658 1.622 0 5.93-1.46 9.576-3.246 5.922-2.9 6.546-3.576 5.858-6.348-2.192-8.83-2.238-11.69-.212-13.277 1.13-.884 2.054-2.344 2.054-3.243 0-.9 1.73-2.48 3.843-3.51 2.114-1.033 3.843-2.207 3.843-2.61 0-1.247-5.59-9.458-6.75-9.91-.6-.236-.168-1.393.962-2.57 1.13-1.18 2.4-4.252 2.822-6.83.422-2.575 1.904-5.715 3.294-6.975 2.004-1.818 2.395-3.385 1.892-7.592-.73-6.113.99-7.65 8.555-7.65 3.438 0 5.052.74 6.655 3.05 1.847 2.66 2.953 3.02 8.712 2.844 7.797-.24 11.906 1.805 12.99 6.466.63 2.703 1.487 3.36 4.386 3.36 2.022 0 3.928.796 4.342 1.813.405.998 1.565 1.814 2.577 1.814 1.4 0 1.68 1.13 1.168 4.725-.598 4.212-.204 5.12 3.63 8.353 4.127 3.48 4.21 3.722 2.074 5.95-2.736 2.855-2.88 6.205-.305 7.138 5.422 1.964-2.42 7.018-9.07 5.845-3.167-.558-4.675.2-9.825 4.93-6.487 5.96-7.218 7.466-4.164 8.572 2.842 1.03 2.384 2.477-2.24 7.088-10.63 10.6-12.216 14.853-6.79 18.21 2.44 1.51 3.22 3.166 3.52 7.483.36 5.138.715 5.648 4.86 6.96 3.353 1.06 4.914 2.512 6.24 5.8 2.24 5.558 1.38 7.6-4.283 10.15-3.007 1.353-5.265 3.597-6.69 6.648-1.598 3.418-2.917 4.606-5.11 4.606-1.625 0-2.956-.498-2.956-1.107z" class="province"/><path d="M178.33 382.585c-1.533-1.54-2.786-3.424-2.786-4.19 0-.764-1.153-1.973-2.562-2.685-1.41-.71-2.562-1.87-2.562-2.574 0-.704 1.153-1.564 2.562-1.912 1.903-.47 2.562-1.65 2.562-4.587v-3.955l-8.832-.47c-8.314-.445-9.13-.755-13.95-5.303-5.208-4.92-8.22-6.743-14.927-9.043l-3.763-1.29 4.084-2.345c2.34-1.343 4.083-3.348 4.083-4.696 0-1.45 1.018-2.5 2.658-2.74 2.472-.358 6.02-7.177 8.41-16.17.365-1.364 3.21-5.1 6.325-8.304 3.115-3.202 5.663-6.827 5.663-8.056 0-1.228 1.153-2.815 2.562-3.527 2.728-1.38 3.532-4.838 1.124-4.838-.993 0-.945-.56.157-1.814.876-.997 3.252-1.813 5.28-1.813 2.832 0 3.686.56 3.686 2.418 0 2.088.854 2.418 6.248 2.418 3.99 0 6.824-.654 7.842-1.812 1.788-2.034 9.666-2.472 10.888-.605.436.665 2.686 1.21 5 1.21 4.74 0 8.45 3.063 8.45 6.976 0 1.404.577 2.89 1.28 3.3 1.997 1.165 1.515 3.927-1.098 6.302-1.31 1.19-2.726 4.27-3.148 6.848-.422 2.576-1.656 5.612-2.743 6.745-2.05 2.137-2.736 7.313-.972 7.313.553 0 1.977 1.552 3.164 3.45 2.112 3.375 2.09 3.48-1.005 4.81-1.74.75-3.163 2.123-3.163 3.053 0 .932-.94 2.427-2.084 3.325-1.695 1.328-1.948 3.157-1.356 9.822.56 6.286.34 8.19-.947 8.19-.92 0-3.14 1.088-4.93 2.418-1.792 1.33-5 2.42-7.132 2.42-4.126 0-6.123 2.874-4.828 6.952.68 2.135-3.114 7.557-5.285 7.557-.645 0-2.426-1.26-3.958-2.8z" class="province"/><path d="M116.666 371.524c-1.435-1.44-2.608-3.88-2.608-5.42 0-2.51-4.213-8.115-11.51-15.31-3.612-3.563-3.218-5.98 1.262-7.732 3.327-1.3 3.843-2.127 3.843-6.146 0-3.22-.86-5.4-2.803-7.11-3.002-2.64-6.793-3.228-8.085-1.255-2.307 3.525-16.012-1.203-16.012-5.523 0-1.15-1.41-1.73-4.212-1.73-9.442 0-21.406-9.273-21.406-16.59 0-2.318-.603-2.872-2.882-2.648-1.585.156-4.512-.456-6.504-1.36-4.9-2.223-7.793-.376-8.304 5.3-.34 3.77-.854 4.413-3.523 4.413-3.782 0-3.917-1.14-.606-5.114 1.385-1.663 3.467-5.682 4.627-8.93 1.16-3.25 3.197-8.052 4.528-10.67 2.793-5.5 3.028-8.086.916-10.08-1.14-1.075-1.146-2.157-.027-4.474 1.497-3.103 4.572-4.047 6.013-1.846 2.42 3.694 12.17-.443 12.17-5.164 0-3.358 2.508-3.59 3.813-.35.685 1.702 1.98 3.088 2.88 3.08 4.714-.05 7.388-1.737 8.702-5.496.778-2.226 2.53-4.382 3.896-4.79 1.69-.507 2.743-2.283 3.3-5.566.573-3.384 1.337-4.633 2.563-4.19.96.35 1.746.107 1.746-.538 0-.644.077-1.58.17-2.078.317-1.663 4.464-3.768 8.185-4.153 3.403-.353 3.76.008 4.796 4.83 1.442 6.71 4.42 6.433 8.073-.747l2.65-5.21 5.356 5.485c2.945 3.017 5.355 6.58 5.355 7.918 0 1.602 2.355 3.91 6.887 6.75 9.23 5.786 18.944 6.93 25.907 3.052l4.765-2.654 2.676 2.634c1.888 1.857 2.205 2.8 1.075 3.198-.88.31-1.6 1.814-1.6 3.342 0 2.275 1.022 3.022 5.64 4.12 5.56 1.32 5.646 1.42 6.167 7.096.29 3.166.78 6.572 1.086 7.57.41 1.337-.453 1.792-3.287 1.73-4.266-.093-6.94 2.336-7.003 6.36-.022 1.458-.617 2.986-1.322 3.397-.704.41-1.28 1.74-1.28 2.952s-2.55 4.824-5.664 8.027c-3.114 3.202-5.96 6.94-6.323 8.305-2.392 8.99-5.94 15.81-8.41 16.17-1.658.24-2.66 1.286-2.66 2.776 0 1.39-1.605 3.252-3.835 4.45-2.11 1.133-3.838 2.78-3.842 3.658-.005.88-.873 2.414-1.93 3.412-2.97 2.803-2.317 5.205 2.562 9.424 5.614 4.854 5.64 6.413.12 7.39-2.4.426-6.416 2.547-8.922 4.714l-4.557 3.94-2.607-2.62zM309.374 366.32c-3.52-2.385-5.735-7.833-5.735-14.104 0-8.31-1.544-9.268-13.578-8.427-9.518.665-13.91-.66-11.07-3.338 2.92-2.757 1.85-7.853-2.352-11.19-3.726-2.96-3.86-3.363-2.463-7.362.814-2.328 1.92-4.232 2.456-4.232 1.28 0 3.95-5.58 3.95-8.25 0-1.71.932-2.008 5.123-1.63l5.124.46v-4.834c0-3.158-.66-5.073-1.9-5.523-1.08-.39-1.574-1.488-1.144-2.547.537-1.322 2.565-1.86 7.023-1.86 5.34 0 6.267-.345 6.267-2.336 0-1.285 1.153-2.682 2.562-3.105 1.408-.422 2.56-1.752 2.56-2.956 0-5.4 6.823-5.9 8.23-.602.458 1.72 2.025 3.213 3.818 3.638 1.673.396 4.32 2.107 5.88 3.802 2.584 2.804 3.47 3.02 9.89 2.394 6.077-.592 7.133-.386 7.654 1.496.346 1.25 2.686 2.772 5.472 3.56 2.677.757 5.583 2.19 6.457 3.184 2.053 2.335 8.19 2.33 10.244-.005.877-.998 3.414-1.814 5.638-1.814 3.982 0 4.09.154 7.118 10.35 3.03 10.192 3.04 10.41.704 14.21-1.304 2.12-3.14 4.293-4.082 4.827-.94.535-2.83 3.046-4.2 5.58-1.494 2.763-4.994 6.124-8.742 8.395-6.435 3.898-13.09 10.114-13.09 12.227 0 .658-1.584 1.528-3.52 1.934-7.978 1.672-21.68 5.683-24.857 7.277-3.715 1.864-7.393 2.168-9.44.78zM424.05 355.758c-2.467-.896-6.82-1.67-9.673-1.72-9.238-.165-11.17-5.27-3.47-9.163 2.632-1.33 4.988-3.42 5.236-4.642.684-3.37-4.685-8.048-9.29-8.093-6.184-.06-8.423-2.416-8.423-8.86v-5.612h-5.05c-2.775 0-5.403.544-5.84 1.21-.434.664-1.826 1.21-3.092 1.21-3.542 0-7.084-13.84-6.652-25.988.19-5.315.953-10.018 1.698-10.452.795-.464.99-2.215.472-4.244-.484-1.9-1.44-6.447-2.125-10.104-.876-4.686-2.18-7.38-4.417-9.115-4.04-3.136-4.058-5.396-.045-5.396 4.52 0 7.118-4.266 7.118-11.686 0-3.47.577-6.647 1.28-7.058 1.837-1.07 1.585-7.546-.32-8.25-.88-.326.285-.986 2.59-1.467 2.304-.48 4.5-1.348 4.88-1.928.378-.58 4.113-1.053 8.298-1.053 4.22 0 7.61-.54 7.61-1.21 0-.665 2.345-1.21 5.21-1.21 4.628 0 5.12-.27 4.397-2.418-.566-1.688-.23-2.418 1.12-2.418 1.063 0 2.29.544 2.724 1.21 1.118 1.706 5.985 1.432 8.666-.488 1.244-.89 3.592-4.003 5.218-6.915 3.334-5.968 7.727-7.415 12.645-4.163 1.575 1.04 3.798 1.893 4.94 1.893 1.143 0 3.753 1.36 5.8 3.02 2.047 1.663 4.236 3.023 4.866 3.024.632 0 .832 4.268.45 9.556-.442 6.066-.192 10.03.682 10.854.982.928.76 1.943-.77 3.54-1.522 1.587-2.148 4.418-2.148 9.71 0 6.462.433 7.826 3.203 10.1 2.773 2.276 3.202 3.634 3.202 10.142 0 6.656.432 7.95 3.788 11.342 4.06 4.103 11.582 16.413 11.582 18.953 0 .847.787 1.975 1.748 2.507.962.532 2.715 2.752 3.896 4.933 1.935 3.573 1.952 4.15.174 5.83-2.73 2.577-2.486 4.5 1.228 9.666 3.642 5.067 3.89 7.586 1.413 14.308-1.873 5.075-4.993 7.948-8.634 7.948-1.994 0-10.075 7.116-14.353 12.638-1.43 1.845-2.01 1.695-6.506-1.68-3.823-2.867-6.213-3.703-10.586-3.703-4.93 0-5.923.458-7.828 3.62-1.872 3.105-2.91 3.608-7.306 3.536-2.818-.047-7.142-.818-9.607-1.715z" class="province"/><path d="M270.104 315.35c-1.03-1.557-3.007-2.52-5.177-2.52-2.648 0-3.702-.72-4.29-2.933-1.362-5.12-5.248-7.344-12.83-7.344-5.686 0-7.234-.473-8.903-2.72-1.705-2.298-3.193-2.722-9.557-2.722-4.146 0-7.912.572-8.368 1.27-.505.77-2.026.054-3.86-1.813-1.942-1.98-4.396-3.083-6.854-3.083-2.105 0-4.184-.544-4.62-1.21-.435-.664-2.2-1.21-3.918-1.21-1.72 0-3.127-.46-3.127-1.023 0-.562-1.152-2.278-2.56-3.812-3.09-3.36-3.334-8.773-.498-10.995 1.135-.89 3.94-1.465 6.233-1.278 5.098.414 5.695-1.098 5.903-14.934.218-14.534.757-15.647 7.784-16.08 8.153-.504 12.507-4.725 10.375-10.057-2.054-5.137-.197-9.252 4.4-9.75 2.973-.32 3.657-1.036 3.98-4.153.268-2.615 1.345-4.178 3.52-5.114 1.975-.848 3.143-2.365 3.155-4.094.027-3.807 1.693-5.926 5.95-7.57 3.235-1.248 4.205-1.015 8.76 2.1 4.668 3.193 5.81 3.448 12.81 2.862 4.228-.353 9.633-.8 12.01-.995 4.618-.378 5.852.758 7.147 6.577.452 2.03 2.208 4.022 4.56 5.17 3.434 1.677 3.823 2.455 3.823 7.64 0 3.175.692 6.426 1.537 7.224.894.845 5.176 1.452 10.224 1.452 8.436 0 8.708.096 9.45 3.326.42 1.83 1.39 4.544 2.156 6.034 2.072 4.035-1.975 7.947-7.117 6.88-6.07-1.257-8.447 5.48-3.44 9.758 1.41 1.204 2.562 3.356 2.562 4.783 0 1.426.634 3.193 1.41 3.925 1.026.968.677 1.55-1.28 2.137-1.48.443-2.705 1.45-2.72 2.236-.016.787-1.156 2.79-2.534 4.454-1.377 1.663-2.517 3.94-2.532 5.058-.016 1.12-1.182 2.38-2.59 2.802-1.41.422-2.563 1.82-2.563 3.104 0 1.992-.927 2.337-6.267 2.337-4.534 0-6.483.53-7.046 1.913-1.354 3.333-.844 6.604 1.144 7.324 2.457.89 2.52 5.274.076 5.274-1.015 0-2.202-.544-2.638-1.21-1.72-2.63-4.447-.988-5.71 3.438-.73 2.556-2.445 5.866-3.814 7.356l-2.49 2.71-1.666-2.52z" class="province"/><path d="M356.163 300.14c-.874-.994-3.78-2.428-6.457-3.185-2.862-.81-5.124-2.303-5.49-3.627-.828-2.986-4.476-4.192-7.424-2.453-3.695 2.177-7.395 1.664-10.477-1.455-1.552-1.57-4.117-3.24-5.7-3.71-1.584-.468-3.233-2.18-3.665-3.805-.46-1.73-2.018-3.245-3.76-3.658-3.43-.812-2.947-3.623.815-4.75 2.606-.78 3.43-5.898 1.163-7.22-.705-.412-1.28-1.992-1.28-3.512s-1.14-3.738-2.533-4.927c-3.27-2.794-2.22-4.258 3.05-4.258 2.45 0 5.094-.924 6.328-2.212 2.244-2.34 2.9-9.282.985-10.4-.625-.365-1.516-2.573-1.98-4.91l-.844-4.244h-8.652c-5.022 0-9.297-.61-10.19-1.45-.845-.8-1.537-4.034-1.537-7.19 0-5.056-.415-5.927-3.493-7.32-2.026-.916-3.97-3.102-4.633-5.204-2.167-6.888-2.67-7.267-9.318-7.024-3.44.126-8.704.59-11.697 1.034-4.735.7-6.276.3-11.85-3.076-6.884-4.17-7.903-6.414-3.843-8.465 2.715-1.373 3.438-5.946 1.264-7.998-1.737-1.64.972-9.02 4.08-11.117 2.504-1.69 3.23-8.038 1.06-9.303-.704-.41-1.28-2.075-1.28-3.7 0-2.11.705-2.95 2.473-2.95 1.572 0 2.62-.972 2.88-2.67.26-1.685 1.594-2.94 3.612-3.393 2.88-.648 3.203-1.32 3.203-6.69 0-5.933.035-5.983 5.41-7.747 4.4-1.443 6.214-1.502 9.7-.312 2.357.806 6.84 1.45 9.96 1.433 5.353-.03 5.805-.302 8.02-4.837 2.247-4.6 2.602-4.805 8.342-4.805 4.99 0 6.208-.456 7.26-2.72.854-1.837 2.573-2.84 5.294-3.09 2.217-.204 5.044-1.428 6.284-2.72 1.555-1.623 3.932-2.352 7.663-2.352 3.085 0 6.05-.73 6.904-1.7.824-.937 4.282-1.89 7.686-2.117l6.19-.415.653 10.856c.52 8.65 1.11 11.11 2.902 12.094 4.525 2.487 9.568 7.867 9.568 10.207 0 6.115 7.71 13.4 14.182 13.4 1.748 0 3.844 1.07 4.736 2.42 1.103 1.667 2.987 2.417 6.072 2.417 3.813 0 4.472.41 4.472 2.78 0 1.53.675 3.42 1.5 4.197 1.143 1.08 1.11 2.526-.145 6.115-2.277 6.51-1.075 8.912 6.988 13.966 5.868 3.678 8.098 4.38 13.898 4.38 4.577 0 7.446.612 8.502 1.814.877.998 2.82 1.88 4.32 1.957 2.038.107 1.803.336-.93.907-2.617.547-4.507 2.265-6.64 6.035-3.282 5.8-7.615 9.417-8.91 7.438-.44-.672-2.838-1.222-5.328-1.222-3.45 0-4.687.575-5.198 2.418-.475 1.713-1.748 2.418-4.364 2.418-2.032 0-3.694.545-3.694 1.21 0 .67-3.39 1.21-7.61 1.21-4.185 0-7.92.473-8.3 1.052-.378.58-2.43 1.382-4.558 1.784-4.11.776-5.21 3.88-2.333 6.595 1.197 1.128 1.197 1.773 0 2.902-.844.798-1.536 4.214-1.536 7.59 0 7.246-2.64 11.515-7.118 11.515-4.662 0-4.445 6.78.333 10.376 2.74 2.064 3.5 3.71 3.64 7.905.098 2.916.335 5.844.527 6.51.553 1.91-.03 16.702-.748 19.045-.49 1.593-2.016 2.116-6.172 2.116-3.345 0-6.15.716-7.116 1.814-2.007 2.283-3.116 2.284-5.12.006zM179.575 288.95c-.92-3.16-1.973-8.335-2.337-11.5-.655-5.692-.728-5.772-6.59-7.165-3.26-.775-5.22-1.63-4.358-1.903 2.65-.833 1.774-6.943-1.397-9.755-3.753-3.328-5.71-3.31-9.545.092-5.047 4.475-13.554 3.784-22.507-1.827-4.89-3.067-7.253-5.354-7.253-7.026 0-1.363-2.837-5.31-6.305-8.77-3.467-3.462-6.714-7.833-7.214-9.716-.865-3.253-1.176-3.383-6.352-2.65-4.99.706-5.507.528-6.215-2.132-.423-1.597-3.374-5.17-6.556-7.938-6.332-5.51-6.624-6.69-4.324-17.498 1.295-6.09 1.202-7.142-.817-9.248-1.888-1.97-1.996-2.7-.63-4.253 1.33-1.513 1.34-2.857.052-6.975-.88-2.805-2.092-6.006-2.696-7.113-.718-1.313-.5-2.484.63-3.368.952-.746 2.11-3.27 2.575-5.608.465-2.34 1.7-4.562 2.744-4.94 2.68-.972 5.645-6.86 5.645-11.218 0-3.297.41-3.688 3.868-3.688 4.953 0 13.81-5.254 15.364-9.114.66-1.638 1.934-2.978 2.832-2.98 2.605 0 11.24-9.102 11.24-11.847 0-1.38-1.074-2.82-2.393-3.216-1.317-.395-3.423-1.792-4.682-3.105-2.22-2.315-2.195-2.39.79-2.393 5.367-.008 11.187-4.246 11.642-8.476.4-3.712.45-3.738 2.97-1.545 7.068 6.16 10.98 7.903 16.02 7.142 5.546-.837 8.14 1.11 4.67 3.504-3.34 2.305-2.714 8.63 1.085 10.98 4.023 2.49 4.09 5 .175 6.684-2.643 1.138-3.124 2.39-3.79 9.887-.823 9.276-.22 10.74 5.6 13.58 4.82 2.353 5.572 6.025 1.722 8.406-4.484 2.774-4.383 9.95.155 11.024 1.773.42 4.367.48 5.765.136 2.02-.5 2.54-.024 2.54 2.32 0 3.74 3.24 4.973 6.27 2.384 2.6-2.22 4.21-1.172 5.82 3.787.587 1.807 2.486 3.103 5.772 3.938 2.694.685 5.612 2.058 6.485 3.05 2.14 2.434 10.24 2.428 10.24-.008 0-2.576 2.254-2.246 4.14.604.977 1.48 2.987 2.42 5.166 2.42 2.518 0 3.89.8 4.67 2.72 2.136 5.275 5.934 7.35 11.824 6.462 3.51-.53 5.685-.332 6.276.57 1.214 1.856-1.442 8.615-4.132 10.515-1.186.84-2.34 3.013-2.56 4.83-.318 2.6-1.217 3.44-4.2 3.922-4.708.76-7.086 6.683-4.89 12.173 1.214 3.038 1.014 3.657-1.73 5.354-2.078 1.285-4.493 1.673-7.314 1.173-6.495-1.15-7.638 1.144-8.46 16.98-.39 7.537-1.087 14.057-1.547 14.49-.46.432-2.066.068-3.568-.81-2.463-1.44-3.087-1.21-6.378 2.335-2.005 2.16-4.29 3.93-5.08 3.93-1.94 0-1.806 1.892.274 3.855.938.886 2.102 3.1 2.586 4.924.485 1.822 1.446 3.313 2.138 3.313.69 0 1.256.544 1.256 1.21 0 .664-.618 1.208-1.372 1.208-.755 0-2.237.817-3.294 1.814-1.057.997-3.48 1.813-5.382 1.813-3.04 0-3.664-.7-5.135-5.744z" class="province"/><path d="M51.858 266.768c-.477-.728-3.103-1.122-5.84-.875-3.095.278-4.974-.063-4.974-.905 0-.743-2.238-1.985-4.972-2.758-6.633-1.876-8.252-3.838-6.584-7.977 2.306-5.726 1.56-9.668-2.535-13.37-2.113-1.912-3.826-4.054-3.807-4.76.02-.708 1.79-3.463 3.932-6.123l3.895-4.837-.88-12.697c-.584-8.4-1.686-14.285-3.258-17.392-2.33-4.604-2.327-4.76.152-8.046 2.843-3.768 3.347-10.79.938-13.065-1.267-1.196-1.202-1.734.32-2.642 1.05-.626 2.878-1.147 4.06-1.158 2.807-.024 7.458-5.66 7.458-9.04 0-1.457 1.44-3.925 3.198-5.485 2.9-2.57 3.505-2.68 6.477-1.18 2.94 1.486 3.873 1.35 9.05-1.304 3.174-1.63 6.69-3.913 7.813-5.077 1.122-1.164 3.034-2.116 4.247-2.116 1.214 0 2.925-.817 3.802-1.814.876-.998 3.18-1.814 5.12-1.814 1.938 0 5.326-.34 7.528-.756 3.37-.636 4.003-1.306 4.003-4.232 0-2.234.666-3.477 1.862-3.477 1.474 0 1.726 1.323 1.212 6.35-1.22 11.952-1.88 14.096-5.048 16.45-1.738 1.29-3.515 4.022-3.95 6.07-.433 2.05-1.584 4.348-2.556 5.11-2.16 1.692-2.306 6.14-.263 8.07.87.82 1.45 4.71 1.378 9.238-.08 5.034.462 8.28 1.524 9.113 1.197.938 1.36 2.698.6 6.42-.58 2.82-1.077 7.43-1.108 10.242-.05 4.544.59 5.675 5.73 10.15 3.182 2.768 6.14 6.365 6.573 7.993.706 2.658 1.35 2.917 6.316 2.544 6.68-.502 7.736 1.43 4.73 8.652-2.114 5.08-4.19 5.384-4.19.613 0-1.584-.597-3.23-1.327-3.655-2.515-1.467-11.897.914-14.948 3.794-1.68 1.586-3.532 2.884-4.114 2.884-.582 0-1.436 2.23-1.898 4.96-.59 3.475-1.58 5.14-3.312 5.568-1.382.34-3.104 2.42-3.906 4.715-1.725 4.932-5.297 5.453-7.408 1.08-.803-1.662-2.22-3.023-3.152-3.023-2.333 0-4.767 2.497-4.767 4.892 0 1.872-3.76 5.99-5.47 5.99-.43 0-1.173-.595-1.65-1.322zM240.872 199.01c0-.914-2.202-1.162-6.7-.754-7.098.644-8.652-.192-11.245-6.044-.87-1.96-2.275-2.72-5.035-2.72-2.518 0-4.3-.83-5.2-2.42-1.708-3.01-10.248-3.515-10.248-.604 0 2.518-3.01 2.27-5.63-.466-1.203-1.253-3.76-2.576-5.685-2.94-2.404-.453-4.182-2.01-5.68-4.975-2.293-4.54-6.54-5.8-9.65-2.864-1.196 1.128-1.537.69-1.537-1.972 0-3.18-.297-3.38-4.163-2.82-7.904 1.14-9.938-1.944-3.982-6.04 4.917-3.38 3.524-9.673-3.035-13.706-4.604-2.83-4.723-3.09-4.356-9.466.302-5.245.997-7.016 3.473-8.855 4.203-3.12 4.152-8.447-.106-11.08-3.594-2.224-4.175-4.943-1.28-5.99 1.056-.384 1.92-1.428 1.92-2.322 0-2.077 4.742-11.386 6.248-12.265.63-.366 2.966-.067 5.192.666 3.383 1.114 4.46.98 6.552-.806 1.377-1.176 2.504-2.812 2.504-3.636 0-1.687 2.822-2.965 6.55-2.965 1.373 0 2.828-.816 3.234-1.813 1.08-2.658 8.464-2.343 10.304.44 1.12 1.692 3.745 2.46 10.564 3.096 7.743.72 9.59 1.36 12.588 4.354 2.873 2.87 5.033 3.684 11.84 4.46l8.327.95.4 4.568c.428 4.902 3.427 7.34 16.256 13.225 5.04 2.31 5.76 3.125 5.76 6.504 0 2.546.764 4.153 2.242 4.717 2.014.768 1.96.957-.52 1.862-3.35 1.222-5.227 7.708-2.972 10.273 1.56 1.774 1.36 1.927-4.834 3.67-.882.248-1.602 1.556-1.602 2.907 0 1.593-.842 2.456-2.395 2.456-3.495 0-4.75 8.107-1.74 11.245 2.08 2.17 2.044 2.4-.68 4.482-1.58 1.207-2.87 2.788-2.87 3.512 0 .725-.578 1.318-1.282 1.318-1.754 0-1.625 10.074.152 11.75 1.055.997.718 1.773-1.28 2.952-1.493.88-2.714 2.81-2.714 4.29 0 1.478-1.115 3.252-2.478 3.94-3.228 1.632-5.208 1.59-5.208-.11zM435.577 196.142c-1.057-1.202-3.925-1.814-8.503-1.814-5.79 0-8.03-.704-13.843-4.347-3.813-2.39-7.26-5.15-7.66-6.132-.835-2.053 1.314-6.45 3.152-6.45 1.988 0 1.377-2.783-1.326-6.045-1.378-1.663-2.518-4.247-2.533-5.744-.03-2.75-.643-3.058-6.433-3.23-2.312-.07-3.098-.685-2.826-2.212.302-1.7-.562-2.116-4.405-2.116-8.037 0-15.828-6.596-15.828-13.4 0-2.34-5.043-7.72-9.568-10.207-1.795-.987-2.383-3.458-2.914-12.26l-.666-11.026 5.286-.844c2.908-.464 5.57-1.277 5.918-1.808.348-.53 3.305-1.343 6.573-1.805 6.09-.862 7.474-1.85 15.84-11.323 2.45-2.774 5.08-5.044 5.844-5.044 2.428 0 8.658-7.054 10.4-11.774 2.37-6.423 2.14-8.244-1.31-10.377-2.223-1.375-3.2-3.344-3.69-7.43-.45-3.785-1.616-6.338-3.655-8.007l-2.993-2.45 5.89-5.072c3.24-2.79 6.23-6.025 6.642-7.19 1.07-3.01 5.008-2.616 9.036.908 1.9 1.663 4.026 3.023 4.724 3.023.698 0 2.506 1.088 4.018 2.42 1.513 1.33 3.705 2.417 4.872 2.417 4.96 0 10.424 11.25 9.302 19.15-.448 3.15-.21 5.034.635 5.034 2.265 0 4.25 7.818 3.344 13.17-.628 3.715-.333 5.576 1.13 7.115 1.09 1.147 2.4 4.203 2.908 6.79.51 2.587 2.28 6.94 3.936 9.673 1.656 2.734 3.017 6.08 3.026 7.435.008 1.357 1.187 4.622 2.618 7.257 3.082 5.67 7.095 20.082 8.354 30 1.148 9.034-.955 15.54-5.64 17.456-6.515 2.662-12.015 6.164-14.05 8.946-1.127 1.54-2.794 3.52-3.704 4.4-.91.878-1.653 2.647-1.653 3.93 0 1.282-.47 2.33-1.044 2.33-.573 0-2.005 1.906-3.18 4.234-2.348 4.647-3.616 5.156-6.023 2.418z" class="province"/><path d="M24.39 169.425c0-.662-4.015-4.988-8.923-9.613-4.91-4.626-8.944-9.17-8.967-10.1-.023-.928 2.552-4.306 5.722-7.505 3.17-3.2 5.765-6.42 5.765-7.155 0-.735 1.534-4.294 3.408-7.908 3.023-5.827 3.248-7.085 1.984-11.11-.784-2.495-1.79-6.986-2.233-9.98-.445-2.99-1.222-8.16-1.728-11.486-.507-3.325-1.608-7.226-2.447-8.67-.945-1.622-1.22-4.734-.723-8.16.757-5.217 1.037-5.544 4.793-5.594 2.194-.03 6.295-.884 9.113-1.9 2.818-1.017 7.717-2.633 10.888-3.593 3.17-.958 7.205-2.73 8.966-3.935 3.63-2.483 10.47-4.418 24.17-6.837 5.863-1.036 10.505-2.612 12.252-4.16 1.993-1.77 4.516-2.496 8.658-2.496 10.543 0 19.616-5.565 25.238-15.48 1.555-2.744 7.643-6.285 10.804-6.285 2.473 0 4.42 5.222 5.03 13.505.46 6.23.235 6.972-2.473 8.136-3.697 1.59-3.977 6.438-.56 9.665 1.904 1.797 2.282 3.45 1.77 7.74-.558 4.67-.26 5.653 2.063 6.827 3.05 1.54 3.815 7.332.968 7.332-1.23 0-1.948 2.39-2.436 8.123-.38 4.467-1.323 8.322-2.096 8.565-.774.243-1.407 1.99-1.407 3.882 0 4.44-5.25 8.45-11.06 8.45-6.145 0-5.804 3.8.743 8.278l5.053 3.455-4.787 4.413c-2.634 2.426-5.498 4.412-6.366 4.412-.87 0-2.118 1.338-2.777 2.973-1.453 3.608-10.482 9.49-13.675 8.91-1.865-.34-2.23-1.397-1.913-5.547l.392-5.127H93.02c-4.192 0-4.58.294-4.58 3.476 0 2.926-.634 3.596-4.004 4.232-2.202.415-5.59.756-7.53.756-1.938 0-4.242.816-5.12 1.813-.876.998-2.644 1.814-3.926 1.814-1.283 0-3.096.953-4.028 2.117-3.15 3.932-9.317 6.122-15.41 5.474-5.23-.556-5.95-.298-8.47 3.04-1.512 2.008-2.75 4.445-2.75 5.417 0 2.697-5.03 8.138-7.524 8.138-1.217 0-2.904.653-3.75 1.452-.845.798-1.537.91-1.537.248zM288.312 134.943c-1.737-.655-5.196-1.03-7.686-.83-5.464.434-9.008-2.395-9.017-7.2-.006-2.952-1.224-3.91-10.89-8.57-10.874-5.244-10.88-5.25-10.88-10.015 0-4.696-.244-4.96-5.986-6.547-2.674-.737-.283-5.158 3.614-6.682 2.572-1.006 4.025-2.592 4.52-4.936.47-2.207 1.536-3.454 2.956-3.454 3.136 0 11.547-7.816 11.547-10.73 0-2.816-1.478-3.877-6.85-4.914-2.85-.55-4.126-1.647-4.837-4.154-.53-1.874-1.856-4.035-2.944-4.804-2.047-1.442-1.5-6.838.69-6.838.623 0 1.132-2.176 1.132-4.836 0-4.332.33-4.837 3.15-4.837 4.786 0 12.154-3.9 12.19-6.452.028-1.98.897-2.153 8.037-1.606 4.403.337 11.464 1.144 15.69 1.795 24.96 3.84 31.347 4.383 50.6 4.293 11.623-.054 26.61-.723 33.303-1.488 6.693-.764 16.493-1.69 21.777-2.056l9.607-.665-4.804 3.997c-5.653 4.703-6.094 8.11-1.6 12.35 2.353 2.224 3.2 4.312 3.2 7.888 0 3.784.676 5.28 3.04 6.743 2.802 1.734 2.92 2.203 1.513 6.065-1.744 4.787-5.95 9.374-11.64 12.693-2.16 1.262-5.798 4.75-8.082 7.753-3.198 4.204-5.393 5.763-9.543 6.78-2.963.727-9.423 2.712-14.355 4.412-4.93 1.7-11.68 3.347-14.993 3.66-3.315.316-6.7 1.338-7.523 2.273-.854.97-3.82 1.7-6.905 1.7-3.782 0-6.106.73-7.727 2.42-1.276 1.33-3.42 2.418-4.766 2.418-3.55 0-7.403 2.225-7.403 4.275 0 1.285-1.533 1.772-5.567 1.772-5.888 0-8.757 1.922-10.38 6.953-.68 2.103-1.805 2.703-4.956 2.644-2.242-.043-5.498-.613-7.235-1.267z" class="province"/><path d="M146.722 104.532c-8.52-5.908-9.17-7.004-8.61-14.5.37-4.937 1.044-6.952 2.324-6.952 1.28 0 1.803-1.563 1.803-5.4 0-4.14-.59-5.696-2.534-6.677-2.14-1.08-2.414-2.103-1.764-6.578.644-4.44.328-5.654-1.95-7.496-3.516-2.842-3.427-3.827.495-5.515 3.153-1.356 3.2-1.57 2.412-11.16-.442-5.376-1.575-10.944-2.518-12.372-1.584-2.397-1.4-2.71 2.39-4.09 9.71-3.534 13.65-5.494 13.682-6.8.018-.768 2.77-1.69 6.117-2.052 12.135-1.31 3.242-1.63 7.965-4.582 4.706-2.94 23.48-4.48 39.208-3.622 14.986.816 26.918 15.213 26.2 17.346-.365 1.09.064 5.75-3.32 3.736-3.385-2.012-14.685-15.61-16.796-14.153-3.837 2.648 6.57 11.627 6.57 14.148 0 3.635.367 10.795 3.668 13.62 3.93 3.363 7.16 1.053 15.953.678 12.885-.547 16.05 2.708 11.188 11.51-2.636 4.77-2.415 9.245.544 10.99 1.36.8 2.656 2.95 2.882 4.777.344 2.788 1.22 3.478 5.457 4.303 2.776.54 5.314 1.236 5.64 1.543 1.22 1.15-8.234 9.03-10.85 9.044-1.963.01-2.924.974-3.453 3.467-.5 2.367-1.952 3.93-4.612 4.97-2.9 1.135-4.085 2.55-4.692 5.606-.733 3.685-1.145 4.014-4.195 3.337-1.86-.412-4.903-2.084-6.76-3.714-3.493-3.063-10.332-5.11-17.24-5.16-2.306-.017-4.933-1.04-6.282-2.447-2.918-3.044-14.023-3.486-15.194-.605-.405 1-2.052 1.823-3.66 1.833-3.46.022-4.98.95-6.92 4.214-1.13 1.903-2.768 2.42-7.685 2.42-5.708 0-6.415.32-8.147 3.705-1.498 2.93-2.707 3.704-5.764 3.694-2.127-.008-4.733.35-5.79.793-1.105.464-3.552-.325-5.764-1.858z" class="province"/></svg>